G04 #@! TF.GenerationSoftware,KiCad,Pcbnew,(6.0.0)*
G04 #@! TF.CreationDate,2022-01-21T17:29:39+00:00*
G04 #@! TF.ProjectId,Max100x100Plate,4d617831-3030-4783-9130-30506c617465,rev?*
G04 #@! TF.SameCoordinates,Original*
G04 #@! TF.FileFunction,Legend,Bot*
G04 #@! TF.FilePolarity,Positive*
%FSLAX46Y46*%
G04 Gerber Fmt 4.6, Leading zero omitted, Abs format (unit mm)*
G04 Created by KiCad (PCBNEW (6.0.0)) date 2022-01-21 17:29:39*
%MOMM*%
%LPD*%
G01*
G04 APERTURE LIST*
%ADD10C,0.300000*%
%ADD11C,4.000000*%
%ADD12C,3.200000*%
G04 APERTURE END LIST*
D10*
X160142857Y-98263571D02*
X160142857Y-96763571D01*
X159642857Y-97835000D01*
X159142857Y-96763571D01*
X159142857Y-98263571D01*
X157785714Y-98263571D02*
X157785714Y-97477857D01*
X157857142Y-97335000D01*
X158000000Y-97263571D01*
X158285714Y-97263571D01*
X158428571Y-97335000D01*
X157785714Y-98192142D02*
X157928571Y-98263571D01*
X158285714Y-98263571D01*
X158428571Y-98192142D01*
X158500000Y-98049285D01*
X158500000Y-97906428D01*
X158428571Y-97763571D01*
X158285714Y-97692142D01*
X157928571Y-97692142D01*
X157785714Y-97620714D01*
X157214285Y-98263571D02*
X156428571Y-97263571D01*
X157214285Y-97263571D02*
X156428571Y-98263571D01*
X155857142Y-98263571D02*
X155857142Y-96763571D01*
X155285714Y-96763571D01*
X155142857Y-96835000D01*
X155071428Y-96906428D01*
X155000000Y-97049285D01*
X155000000Y-97263571D01*
X155071428Y-97406428D01*
X155142857Y-97477857D01*
X155285714Y-97549285D01*
X155857142Y-97549285D01*
X154142857Y-98263571D02*
X154285714Y-98192142D01*
X154357142Y-98049285D01*
X154357142Y-96763571D01*
X152928571Y-98263571D02*
X152928571Y-97477857D01*
X153000000Y-97335000D01*
X153142857Y-97263571D01*
X153428571Y-97263571D01*
X153571428Y-97335000D01*
X152928571Y-98192142D02*
X153071428Y-98263571D01*
X153428571Y-98263571D01*
X153571428Y-98192142D01*
X153642857Y-98049285D01*
X153642857Y-97906428D01*
X153571428Y-97763571D01*
X153428571Y-97692142D01*
X153071428Y-97692142D01*
X152928571Y-97620714D01*
X152428571Y-97263571D02*
X151857142Y-97263571D01*
X152214285Y-96763571D02*
X152214285Y-98049285D01*
X152142857Y-98192142D01*
X152000000Y-98263571D01*
X151857142Y-98263571D01*
X150785714Y-98192142D02*
X150928571Y-98263571D01*
X151214285Y-98263571D01*
X151357142Y-98192142D01*
X151428571Y-98049285D01*
X151428571Y-97477857D01*
X151357142Y-97335000D01*
X151214285Y-97263571D01*
X150928571Y-97263571D01*
X150785714Y-97335000D01*
X150714285Y-97477857D01*
X150714285Y-97620714D01*
X151428571Y-97763571D01*
X148142857Y-98263571D02*
X149000000Y-98263571D01*
X148571428Y-98263571D02*
X148571428Y-96763571D01*
X148714285Y-96977857D01*
X148857142Y-97120714D01*
X149000000Y-97192142D01*
X147214285Y-96763571D02*
X147071428Y-96763571D01*
X146928571Y-96835000D01*
X146857142Y-96906428D01*
X146785714Y-97049285D01*
X146714285Y-97335000D01*
X146714285Y-97692142D01*
X146785714Y-97977857D01*
X146857142Y-98120714D01*
X146928571Y-98192142D01*
X147071428Y-98263571D01*
X147214285Y-98263571D01*
X147357142Y-98192142D01*
X147428571Y-98120714D01*
X147500000Y-97977857D01*
X147571428Y-97692142D01*
X147571428Y-97335000D01*
X147500000Y-97049285D01*
X147428571Y-96906428D01*
X147357142Y-96835000D01*
X147214285Y-96763571D01*
X145785714Y-96763571D02*
X145642857Y-96763571D01*
X145500000Y-96835000D01*
X145428571Y-96906428D01*
X145357142Y-97049285D01*
X145285714Y-97335000D01*
X145285714Y-97692142D01*
X145357142Y-97977857D01*
X145428571Y-98120714D01*
X145500000Y-98192142D01*
X145642857Y-98263571D01*
X145785714Y-98263571D01*
X145928571Y-98192142D01*
X146000000Y-98120714D01*
X146071428Y-97977857D01*
X146142857Y-97692142D01*
X146142857Y-97335000D01*
X146071428Y-97049285D01*
X146000000Y-96906428D01*
X145928571Y-96835000D01*
X145785714Y-96763571D01*
X144785714Y-98263571D02*
X144000000Y-97263571D01*
X144785714Y-97263571D02*
X144000000Y-98263571D01*
X142642857Y-98263571D02*
X143500000Y-98263571D01*
X143071428Y-98263571D02*
X143071428Y-96763571D01*
X143214285Y-96977857D01*
X143357142Y-97120714D01*
X143500000Y-97192142D01*
X141714285Y-96763571D02*
X141571428Y-96763571D01*
X141428571Y-96835000D01*
X141357142Y-96906428D01*
X141285714Y-97049285D01*
X141214285Y-97335000D01*
X141214285Y-97692142D01*
X141285714Y-97977857D01*
X141357142Y-98120714D01*
X141428571Y-98192142D01*
X141571428Y-98263571D01*
X141714285Y-98263571D01*
X141857142Y-98192142D01*
X141928571Y-98120714D01*
X142000000Y-97977857D01*
X142071428Y-97692142D01*
X142071428Y-97335000D01*
X142000000Y-97049285D01*
X141928571Y-96906428D01*
X141857142Y-96835000D01*
X141714285Y-96763571D01*
X140285714Y-96763571D02*
X140142857Y-96763571D01*
X140000000Y-96835000D01*
X139928571Y-96906428D01*
X139857142Y-97049285D01*
X139785714Y-97335000D01*
X139785714Y-97692142D01*
X139857142Y-97977857D01*
X139928571Y-98120714D01*
X140000000Y-98192142D01*
X140142857Y-98263571D01*
X140285714Y-98263571D01*
X140428571Y-98192142D01*
X140500000Y-98120714D01*
X140571428Y-97977857D01*
X140642857Y-97692142D01*
X140642857Y-97335000D01*
X140571428Y-97049285D01*
X140500000Y-96906428D01*
X140428571Y-96835000D01*
X140285714Y-96763571D01*
X158214285Y-100250000D02*
X157500000Y-100250000D01*
X158357142Y-100678571D02*
X157857142Y-99178571D01*
X157357142Y-100678571D01*
X156857142Y-99678571D02*
X156857142Y-100678571D01*
X156857142Y-99821428D02*
X156785714Y-99750000D01*
X156642857Y-99678571D01*
X156428571Y-99678571D01*
X156285714Y-99750000D01*
X156214285Y-99892857D01*
X156214285Y-100678571D01*
X154857142Y-100678571D02*
X154857142Y-99178571D01*
X154857142Y-100607142D02*
X155000000Y-100678571D01*
X155285714Y-100678571D01*
X155428571Y-100607142D01*
X155500000Y-100535714D01*
X155571428Y-100392857D01*
X155571428Y-99964285D01*
X155500000Y-99821428D01*
X155428571Y-99750000D01*
X155285714Y-99678571D01*
X155000000Y-99678571D01*
X154857142Y-99750000D01*
X154142857Y-100678571D02*
X154142857Y-99678571D01*
X154142857Y-99964285D02*
X154071428Y-99821428D01*
X154000000Y-99750000D01*
X153857142Y-99678571D01*
X153714285Y-99678571D01*
X152642857Y-100607142D02*
X152785714Y-100678571D01*
X153071428Y-100678571D01*
X153214285Y-100607142D01*
X153285714Y-100464285D01*
X153285714Y-99892857D01*
X153214285Y-99750000D01*
X153071428Y-99678571D01*
X152785714Y-99678571D01*
X152642857Y-99750000D01*
X152571428Y-99892857D01*
X152571428Y-100035714D01*
X153285714Y-100178571D01*
X152071428Y-99678571D02*
X151785714Y-100678571D01*
X151500000Y-99964285D01*
X151214285Y-100678571D01*
X150928571Y-99678571D01*
X148714285Y-99892857D02*
X149214285Y-99892857D01*
X149214285Y-100678571D02*
X149214285Y-99178571D01*
X148500000Y-99178571D01*
X147928571Y-100678571D02*
X147928571Y-99678571D01*
X147928571Y-99178571D02*
X148000000Y-99250000D01*
X147928571Y-99321428D01*
X147857142Y-99250000D01*
X147928571Y-99178571D01*
X147928571Y-99321428D01*
X147285714Y-100607142D02*
X147142857Y-100678571D01*
X146857142Y-100678571D01*
X146714285Y-100607142D01*
X146642857Y-100464285D01*
X146642857Y-100392857D01*
X146714285Y-100250000D01*
X146857142Y-100178571D01*
X147071428Y-100178571D01*
X147214285Y-100107142D01*
X147285714Y-99964285D01*
X147285714Y-99892857D01*
X147214285Y-99750000D01*
X147071428Y-99678571D01*
X146857142Y-99678571D01*
X146714285Y-99750000D01*
X145357142Y-100607142D02*
X145500000Y-100678571D01*
X145785714Y-100678571D01*
X145928571Y-100607142D01*
X146000000Y-100535714D01*
X146071428Y-100392857D01*
X146071428Y-99964285D01*
X146000000Y-99821428D01*
X145928571Y-99750000D01*
X145785714Y-99678571D01*
X145500000Y-99678571D01*
X145357142Y-99750000D01*
X144714285Y-100678571D02*
X144714285Y-99178571D01*
X144071428Y-100678571D02*
X144071428Y-99892857D01*
X144142857Y-99750000D01*
X144285714Y-99678571D01*
X144500000Y-99678571D01*
X144642857Y-99750000D01*
X144714285Y-99821428D01*
X142785714Y-100607142D02*
X142928571Y-100678571D01*
X143214285Y-100678571D01*
X143357142Y-100607142D01*
X143428571Y-100464285D01*
X143428571Y-99892857D01*
X143357142Y-99750000D01*
X143214285Y-99678571D01*
X142928571Y-99678571D01*
X142785714Y-99750000D01*
X142714285Y-99892857D01*
X142714285Y-100035714D01*
X143428571Y-100178571D01*
X142071428Y-100678571D02*
X142071428Y-99678571D01*
X142071428Y-99964285D02*
X142000000Y-99821428D01*
X141928571Y-99750000D01*
X141785714Y-99678571D01*
X141642857Y-99678571D01*
X155428571Y-101736428D02*
X155357142Y-101665000D01*
X155214285Y-101593571D01*
X154857142Y-101593571D01*
X154714285Y-101665000D01*
X154642857Y-101736428D01*
X154571428Y-101879285D01*
X154571428Y-102022142D01*
X154642857Y-102236428D01*
X155500000Y-103093571D01*
X154571428Y-103093571D01*
X153142857Y-103093571D02*
X154000000Y-103093571D01*
X153571428Y-103093571D02*
X153571428Y-101593571D01*
X153714285Y-101807857D01*
X153857142Y-101950714D01*
X154000000Y-102022142D01*
X152214285Y-101593571D02*
X152071428Y-101593571D01*
X151928571Y-101665000D01*
X151857142Y-101736428D01*
X151785714Y-101879285D01*
X151714285Y-102165000D01*
X151714285Y-102522142D01*
X151785714Y-102807857D01*
X151857142Y-102950714D01*
X151928571Y-103022142D01*
X152071428Y-103093571D01*
X152214285Y-103093571D01*
X152357142Y-103022142D01*
X152428571Y-102950714D01*
X152500000Y-102807857D01*
X152571428Y-102522142D01*
X152571428Y-102165000D01*
X152500000Y-101879285D01*
X152428571Y-101736428D01*
X152357142Y-101665000D01*
X152214285Y-101593571D01*
X150285714Y-103093571D02*
X151142857Y-103093571D01*
X150714285Y-103093571D02*
X150714285Y-101593571D01*
X150857142Y-101807857D01*
X151000000Y-101950714D01*
X151142857Y-102022142D01*
X149714285Y-101736428D02*
X149642857Y-101665000D01*
X149500000Y-101593571D01*
X149142857Y-101593571D01*
X149000000Y-101665000D01*
X148928571Y-101736428D01*
X148857142Y-101879285D01*
X148857142Y-102022142D01*
X148928571Y-102236428D01*
X149785714Y-103093571D01*
X148857142Y-103093571D01*
X147928571Y-101593571D02*
X147785714Y-101593571D01*
X147642857Y-101665000D01*
X147571428Y-101736428D01*
X147500000Y-101879285D01*
X147428571Y-102165000D01*
X147428571Y-102522142D01*
X147500000Y-102807857D01*
X147571428Y-102950714D01*
X147642857Y-103022142D01*
X147785714Y-103093571D01*
X147928571Y-103093571D01*
X148071428Y-103022142D01*
X148142857Y-102950714D01*
X148214285Y-102807857D01*
X148285714Y-102522142D01*
X148285714Y-102165000D01*
X148214285Y-101879285D01*
X148142857Y-101736428D01*
X148071428Y-101665000D01*
X147928571Y-101593571D01*
X146857142Y-101736428D02*
X146785714Y-101665000D01*
X146642857Y-101593571D01*
X146285714Y-101593571D01*
X146142857Y-101665000D01*
X146071428Y-101736428D01*
X146000000Y-101879285D01*
X146000000Y-102022142D01*
X146071428Y-102236428D01*
X146928571Y-103093571D01*
X146000000Y-103093571D01*
X145428571Y-101736428D02*
X145357142Y-101665000D01*
X145214285Y-101593571D01*
X144857142Y-101593571D01*
X144714285Y-101665000D01*
X144642857Y-101736428D01*
X144571428Y-101879285D01*
X144571428Y-102022142D01*
X144642857Y-102236428D01*
X145500000Y-103093571D01*
X144571428Y-103093571D01*
%LPC*%
D11*
X195000000Y-125000000D03*
D12*
X195000000Y-95000000D03*
X105000000Y-105000000D03*
X195000000Y-55000000D03*
X105000000Y-145000000D03*
X195000000Y-145000000D03*
X105000000Y-55000000D03*
X195000000Y-105000000D03*
X105000000Y-95000000D03*
M02*
