G04 #@! TF.GenerationSoftware,KiCad,Pcbnew,(6.0.0)*
G04 #@! TF.CreationDate,2022-01-21T17:29:39+00:00*
G04 #@! TF.ProjectId,Max100x100Plate,4d617831-3030-4783-9130-30506c617465,rev?*
G04 #@! TF.SameCoordinates,Original*
G04 #@! TF.FileFunction,Legend,Top*
G04 #@! TF.FilePolarity,Positive*
%FSLAX46Y46*%
G04 Gerber Fmt 4.6, Leading zero omitted, Abs format (unit mm)*
G04 Created by KiCad (PCBNEW (6.0.0)) date 2022-01-21 17:29:39*
%MOMM*%
%LPD*%
G01*
G04 APERTURE LIST*
%ADD10C,0.150000*%
%ADD11C,0.120000*%
%ADD12C,4.000000*%
%ADD13C,3.200000*%
G04 APERTURE END LIST*
D10*
X193738095Y-121554380D02*
X194309523Y-121554380D01*
X194023809Y-122554380D02*
X194023809Y-121554380D01*
X194642857Y-122554380D02*
X194642857Y-121554380D01*
X195023809Y-121554380D01*
X195119047Y-121602000D01*
X195166666Y-121649619D01*
X195214285Y-121744857D01*
X195214285Y-121887714D01*
X195166666Y-121982952D01*
X195119047Y-122030571D01*
X195023809Y-122078190D01*
X194642857Y-122078190D01*
X196166666Y-122554380D02*
X195595238Y-122554380D01*
X195880952Y-122554380D02*
X195880952Y-121554380D01*
X195785714Y-121697238D01*
X195690476Y-121792476D01*
X195595238Y-121840095D01*
X194238095Y-91252380D02*
X194238095Y-90252380D01*
X194238095Y-90728571D02*
X194809523Y-90728571D01*
X194809523Y-91252380D02*
X194809523Y-90252380D01*
X195190476Y-90252380D02*
X195809523Y-90252380D01*
X195476190Y-90633333D01*
X195619047Y-90633333D01*
X195714285Y-90680952D01*
X195761904Y-90728571D01*
X195809523Y-90823809D01*
X195809523Y-91061904D01*
X195761904Y-91157142D01*
X195714285Y-91204761D01*
X195619047Y-91252380D01*
X195333333Y-91252380D01*
X195238095Y-91204761D01*
X195190476Y-91157142D01*
X104238095Y-101252380D02*
X104238095Y-100252380D01*
X104238095Y-100728571D02*
X104809523Y-100728571D01*
X104809523Y-101252380D02*
X104809523Y-100252380D01*
X105761904Y-100252380D02*
X105285714Y-100252380D01*
X105238095Y-100728571D01*
X105285714Y-100680952D01*
X105380952Y-100633333D01*
X105619047Y-100633333D01*
X105714285Y-100680952D01*
X105761904Y-100728571D01*
X105809523Y-100823809D01*
X105809523Y-101061904D01*
X105761904Y-101157142D01*
X105714285Y-101204761D01*
X105619047Y-101252380D01*
X105380952Y-101252380D01*
X105285714Y-101204761D01*
X105238095Y-101157142D01*
X194238095Y-51252380D02*
X194238095Y-50252380D01*
X194238095Y-50728571D02*
X194809523Y-50728571D01*
X194809523Y-51252380D02*
X194809523Y-50252380D01*
X195714285Y-50585714D02*
X195714285Y-51252380D01*
X195476190Y-50204761D02*
X195238095Y-50919047D01*
X195857142Y-50919047D01*
X104238095Y-141252380D02*
X104238095Y-140252380D01*
X104238095Y-140728571D02*
X104809523Y-140728571D01*
X104809523Y-141252380D02*
X104809523Y-140252380D01*
X105190476Y-140252380D02*
X105857142Y-140252380D01*
X105428571Y-141252380D01*
X194238095Y-141252380D02*
X194238095Y-140252380D01*
X194238095Y-140728571D02*
X194809523Y-140728571D01*
X194809523Y-141252380D02*
X194809523Y-140252380D01*
X195428571Y-140680952D02*
X195333333Y-140633333D01*
X195285714Y-140585714D01*
X195238095Y-140490476D01*
X195238095Y-140442857D01*
X195285714Y-140347619D01*
X195333333Y-140300000D01*
X195428571Y-140252380D01*
X195619047Y-140252380D01*
X195714285Y-140300000D01*
X195761904Y-140347619D01*
X195809523Y-140442857D01*
X195809523Y-140490476D01*
X195761904Y-140585714D01*
X195714285Y-140633333D01*
X195619047Y-140680952D01*
X195428571Y-140680952D01*
X195333333Y-140728571D01*
X195285714Y-140776190D01*
X195238095Y-140871428D01*
X195238095Y-141061904D01*
X195285714Y-141157142D01*
X195333333Y-141204761D01*
X195428571Y-141252380D01*
X195619047Y-141252380D01*
X195714285Y-141204761D01*
X195761904Y-141157142D01*
X195809523Y-141061904D01*
X195809523Y-140871428D01*
X195761904Y-140776190D01*
X195714285Y-140728571D01*
X195619047Y-140680952D01*
X104238095Y-51252380D02*
X104238095Y-50252380D01*
X104238095Y-50728571D02*
X104809523Y-50728571D01*
X104809523Y-51252380D02*
X104809523Y-50252380D01*
X105238095Y-50347619D02*
X105285714Y-50300000D01*
X105380952Y-50252380D01*
X105619047Y-50252380D01*
X105714285Y-50300000D01*
X105761904Y-50347619D01*
X105809523Y-50442857D01*
X105809523Y-50538095D01*
X105761904Y-50680952D01*
X105190476Y-51252380D01*
X105809523Y-51252380D01*
X194238095Y-101252380D02*
X194238095Y-100252380D01*
X194238095Y-100728571D02*
X194809523Y-100728571D01*
X194809523Y-101252380D02*
X194809523Y-100252380D01*
X195714285Y-100252380D02*
X195523809Y-100252380D01*
X195428571Y-100300000D01*
X195380952Y-100347619D01*
X195285714Y-100490476D01*
X195238095Y-100680952D01*
X195238095Y-101061904D01*
X195285714Y-101157142D01*
X195333333Y-101204761D01*
X195428571Y-101252380D01*
X195619047Y-101252380D01*
X195714285Y-101204761D01*
X195761904Y-101157142D01*
X195809523Y-101061904D01*
X195809523Y-100823809D01*
X195761904Y-100728571D01*
X195714285Y-100680952D01*
X195619047Y-100633333D01*
X195428571Y-100633333D01*
X195333333Y-100680952D01*
X195285714Y-100728571D01*
X195238095Y-100823809D01*
X104238095Y-91252380D02*
X104238095Y-90252380D01*
X104238095Y-90728571D02*
X104809523Y-90728571D01*
X104809523Y-91252380D02*
X104809523Y-90252380D01*
X105809523Y-91252380D02*
X105238095Y-91252380D01*
X105523809Y-91252380D02*
X105523809Y-90252380D01*
X105428571Y-90395238D01*
X105333333Y-90490476D01*
X105238095Y-90538095D01*
D11*
X197250000Y-125000000D02*
G75*
G03*
X197250000Y-125000000I-2250000J0D01*
G01*
%LPC*%
D12*
X195000000Y-125000000D03*
D13*
X195000000Y-95000000D03*
X105000000Y-105000000D03*
X195000000Y-55000000D03*
X105000000Y-145000000D03*
X195000000Y-145000000D03*
X105000000Y-55000000D03*
X195000000Y-105000000D03*
X105000000Y-95000000D03*
M02*
