G04 #@! TF.GenerationSoftware,KiCad,Pcbnew,(6.0.0)*
G04 #@! TF.CreationDate,2022-01-21T17:29:39+00:00*
G04 #@! TF.ProjectId,Max100x100Plate,4d617831-3030-4783-9130-30506c617465,rev?*
G04 #@! TF.SameCoordinates,Original*
G04 #@! TF.FileFunction,Copper,L1,Top*
G04 #@! TF.FilePolarity,Positive*
%FSLAX46Y46*%
G04 Gerber Fmt 4.6, Leading zero omitted, Abs format (unit mm)*
G04 Created by KiCad (PCBNEW (6.0.0)) date 2022-01-21 17:29:39*
%MOMM*%
%LPD*%
G01*
G04 APERTURE LIST*
G04 #@! TA.AperFunction,ComponentPad*
%ADD10C,4.000000*%
G04 #@! TD*
G04 APERTURE END LIST*
D10*
X195000000Y-125000000D03*
G04 #@! TA.AperFunction,Conductor*
G36*
X199434121Y-50528002D02*
G01*
X199480614Y-50581658D01*
X199492000Y-50634000D01*
X199492000Y-149366000D01*
X199471998Y-149434121D01*
X199418342Y-149480614D01*
X199366000Y-149492000D01*
X100634000Y-149492000D01*
X100565879Y-149471998D01*
X100519386Y-149418342D01*
X100508000Y-149366000D01*
X100508000Y-145132703D01*
X102890743Y-145132703D01*
X102928268Y-145417734D01*
X103004129Y-145695036D01*
X103116923Y-145959476D01*
X103264561Y-146206161D01*
X103444313Y-146430528D01*
X103652851Y-146628423D01*
X103886317Y-146796186D01*
X103890112Y-146798195D01*
X103890113Y-146798196D01*
X103911869Y-146809715D01*
X104140392Y-146930712D01*
X104410373Y-147029511D01*
X104691264Y-147090755D01*
X104719841Y-147093004D01*
X104914282Y-147108307D01*
X104914291Y-147108307D01*
X104916739Y-147108500D01*
X105072271Y-147108500D01*
X105074407Y-147108354D01*
X105074418Y-147108354D01*
X105282548Y-147094165D01*
X105282554Y-147094164D01*
X105286825Y-147093873D01*
X105291020Y-147093004D01*
X105291022Y-147093004D01*
X105427584Y-147064723D01*
X105568342Y-147035574D01*
X105839343Y-146939607D01*
X106094812Y-146807750D01*
X106098313Y-146805289D01*
X106098317Y-146805287D01*
X106212418Y-146725095D01*
X106330023Y-146642441D01*
X106540622Y-146446740D01*
X106722713Y-146224268D01*
X106872927Y-145979142D01*
X106988483Y-145715898D01*
X107067244Y-145439406D01*
X107107751Y-145154784D01*
X107107845Y-145136951D01*
X107107867Y-145132703D01*
X192890743Y-145132703D01*
X192928268Y-145417734D01*
X193004129Y-145695036D01*
X193116923Y-145959476D01*
X193264561Y-146206161D01*
X193444313Y-146430528D01*
X193652851Y-146628423D01*
X193886317Y-146796186D01*
X193890112Y-146798195D01*
X193890113Y-146798196D01*
X193911869Y-146809715D01*
X194140392Y-146930712D01*
X194410373Y-147029511D01*
X194691264Y-147090755D01*
X194719841Y-147093004D01*
X194914282Y-147108307D01*
X194914291Y-147108307D01*
X194916739Y-147108500D01*
X195072271Y-147108500D01*
X195074407Y-147108354D01*
X195074418Y-147108354D01*
X195282548Y-147094165D01*
X195282554Y-147094164D01*
X195286825Y-147093873D01*
X195291020Y-147093004D01*
X195291022Y-147093004D01*
X195427584Y-147064723D01*
X195568342Y-147035574D01*
X195839343Y-146939607D01*
X196094812Y-146807750D01*
X196098313Y-146805289D01*
X196098317Y-146805287D01*
X196212418Y-146725095D01*
X196330023Y-146642441D01*
X196540622Y-146446740D01*
X196722713Y-146224268D01*
X196872927Y-145979142D01*
X196988483Y-145715898D01*
X197067244Y-145439406D01*
X197107751Y-145154784D01*
X197107845Y-145136951D01*
X197109235Y-144871583D01*
X197109235Y-144871576D01*
X197109257Y-144867297D01*
X197071732Y-144582266D01*
X196995871Y-144304964D01*
X196883077Y-144040524D01*
X196735439Y-143793839D01*
X196555687Y-143569472D01*
X196347149Y-143371577D01*
X196113683Y-143203814D01*
X196091843Y-143192250D01*
X196068654Y-143179972D01*
X195859608Y-143069288D01*
X195589627Y-142970489D01*
X195308736Y-142909245D01*
X195277685Y-142906801D01*
X195085718Y-142891693D01*
X195085709Y-142891693D01*
X195083261Y-142891500D01*
X194927729Y-142891500D01*
X194925593Y-142891646D01*
X194925582Y-142891646D01*
X194717452Y-142905835D01*
X194717446Y-142905836D01*
X194713175Y-142906127D01*
X194708980Y-142906996D01*
X194708978Y-142906996D01*
X194572416Y-142935277D01*
X194431658Y-142964426D01*
X194160657Y-143060393D01*
X193905188Y-143192250D01*
X193901687Y-143194711D01*
X193901683Y-143194713D01*
X193891594Y-143201804D01*
X193669977Y-143357559D01*
X193459378Y-143553260D01*
X193277287Y-143775732D01*
X193127073Y-144020858D01*
X193011517Y-144284102D01*
X192932756Y-144560594D01*
X192892249Y-144845216D01*
X192892227Y-144849505D01*
X192892226Y-144849512D01*
X192890765Y-145128417D01*
X192890743Y-145132703D01*
X107107867Y-145132703D01*
X107109235Y-144871583D01*
X107109235Y-144871576D01*
X107109257Y-144867297D01*
X107071732Y-144582266D01*
X106995871Y-144304964D01*
X106883077Y-144040524D01*
X106735439Y-143793839D01*
X106555687Y-143569472D01*
X106347149Y-143371577D01*
X106113683Y-143203814D01*
X106091843Y-143192250D01*
X106068654Y-143179972D01*
X105859608Y-143069288D01*
X105589627Y-142970489D01*
X105308736Y-142909245D01*
X105277685Y-142906801D01*
X105085718Y-142891693D01*
X105085709Y-142891693D01*
X105083261Y-142891500D01*
X104927729Y-142891500D01*
X104925593Y-142891646D01*
X104925582Y-142891646D01*
X104717452Y-142905835D01*
X104717446Y-142905836D01*
X104713175Y-142906127D01*
X104708980Y-142906996D01*
X104708978Y-142906996D01*
X104572416Y-142935277D01*
X104431658Y-142964426D01*
X104160657Y-143060393D01*
X103905188Y-143192250D01*
X103901687Y-143194711D01*
X103901683Y-143194713D01*
X103891594Y-143201804D01*
X103669977Y-143357559D01*
X103459378Y-143553260D01*
X103277287Y-143775732D01*
X103127073Y-144020858D01*
X103011517Y-144284102D01*
X102932756Y-144560594D01*
X102892249Y-144845216D01*
X102892227Y-144849505D01*
X102892226Y-144849512D01*
X102890765Y-145128417D01*
X102890743Y-145132703D01*
X100508000Y-145132703D01*
X100508000Y-126945987D01*
X193418721Y-126945987D01*
X193427548Y-126957605D01*
X193650281Y-127119430D01*
X193656961Y-127123670D01*
X193926572Y-127271890D01*
X193933707Y-127275247D01*
X194219770Y-127388508D01*
X194227296Y-127390953D01*
X194525279Y-127467462D01*
X194533050Y-127468945D01*
X194838278Y-127507503D01*
X194846169Y-127508000D01*
X195153831Y-127508000D01*
X195161722Y-127507503D01*
X195466950Y-127468945D01*
X195474721Y-127467462D01*
X195772704Y-127390953D01*
X195780230Y-127388508D01*
X196066293Y-127275247D01*
X196073428Y-127271890D01*
X196343039Y-127123670D01*
X196349719Y-127119430D01*
X196572823Y-126957336D01*
X196581246Y-126946413D01*
X196574342Y-126933552D01*
X195012812Y-125372022D01*
X194998868Y-125364408D01*
X194997035Y-125364539D01*
X194990420Y-125368790D01*
X193425334Y-126933876D01*
X193418721Y-126945987D01*
X100508000Y-126945987D01*
X100508000Y-125003958D01*
X192487290Y-125003958D01*
X192506607Y-125310994D01*
X192507600Y-125318855D01*
X192565246Y-125621046D01*
X192567217Y-125628723D01*
X192662284Y-125921309D01*
X192665199Y-125928672D01*
X192796189Y-126207041D01*
X192800001Y-126213974D01*
X192964851Y-126473736D01*
X192969495Y-126480129D01*
X193044497Y-126570790D01*
X193057014Y-126579245D01*
X193067752Y-126573038D01*
X194627978Y-125012812D01*
X194634356Y-125001132D01*
X195364408Y-125001132D01*
X195364539Y-125002965D01*
X195368790Y-125009580D01*
X196931145Y-126571935D01*
X196944407Y-126579177D01*
X196954512Y-126571988D01*
X197030505Y-126480129D01*
X197035149Y-126473736D01*
X197199999Y-126213974D01*
X197203811Y-126207041D01*
X197334801Y-125928672D01*
X197337716Y-125921309D01*
X197432783Y-125628723D01*
X197434754Y-125621046D01*
X197492400Y-125318855D01*
X197493393Y-125310994D01*
X197512710Y-125003958D01*
X197512710Y-124996042D01*
X197493393Y-124689006D01*
X197492400Y-124681145D01*
X197434754Y-124378954D01*
X197432783Y-124371277D01*
X197337716Y-124078691D01*
X197334801Y-124071328D01*
X197203811Y-123792959D01*
X197199999Y-123786026D01*
X197035149Y-123526264D01*
X197030505Y-123519871D01*
X196955503Y-123429210D01*
X196942986Y-123420755D01*
X196932248Y-123426962D01*
X195372022Y-124987188D01*
X195364408Y-125001132D01*
X194634356Y-125001132D01*
X194635592Y-124998868D01*
X194635461Y-124997035D01*
X194631210Y-124990420D01*
X193068855Y-123428065D01*
X193055593Y-123420823D01*
X193045488Y-123428012D01*
X192969495Y-123519871D01*
X192964851Y-123526264D01*
X192800001Y-123786026D01*
X192796189Y-123792959D01*
X192665199Y-124071328D01*
X192662284Y-124078691D01*
X192567217Y-124371277D01*
X192565246Y-124378954D01*
X192507600Y-124681145D01*
X192506607Y-124689006D01*
X192487290Y-124996042D01*
X192487290Y-125003958D01*
X100508000Y-125003958D01*
X100508000Y-123053587D01*
X193418754Y-123053587D01*
X193425658Y-123066448D01*
X194987188Y-124627978D01*
X195001132Y-124635592D01*
X195002965Y-124635461D01*
X195009580Y-124631210D01*
X196574666Y-123066124D01*
X196581279Y-123054013D01*
X196572452Y-123042395D01*
X196349719Y-122880570D01*
X196343039Y-122876330D01*
X196073428Y-122728110D01*
X196066293Y-122724753D01*
X195780230Y-122611492D01*
X195772704Y-122609047D01*
X195474721Y-122532538D01*
X195466950Y-122531055D01*
X195161722Y-122492497D01*
X195153831Y-122492000D01*
X194846169Y-122492000D01*
X194838278Y-122492497D01*
X194533050Y-122531055D01*
X194525279Y-122532538D01*
X194227296Y-122609047D01*
X194219770Y-122611492D01*
X193933707Y-122724753D01*
X193926572Y-122728110D01*
X193656961Y-122876330D01*
X193650281Y-122880570D01*
X193427177Y-123042664D01*
X193418754Y-123053587D01*
X100508000Y-123053587D01*
X100508000Y-105132703D01*
X102890743Y-105132703D01*
X102928268Y-105417734D01*
X103004129Y-105695036D01*
X103116923Y-105959476D01*
X103264561Y-106206161D01*
X103444313Y-106430528D01*
X103652851Y-106628423D01*
X103886317Y-106796186D01*
X103890112Y-106798195D01*
X103890113Y-106798196D01*
X103911869Y-106809715D01*
X104140392Y-106930712D01*
X104410373Y-107029511D01*
X104691264Y-107090755D01*
X104719841Y-107093004D01*
X104914282Y-107108307D01*
X104914291Y-107108307D01*
X104916739Y-107108500D01*
X105072271Y-107108500D01*
X105074407Y-107108354D01*
X105074418Y-107108354D01*
X105282548Y-107094165D01*
X105282554Y-107094164D01*
X105286825Y-107093873D01*
X105291020Y-107093004D01*
X105291022Y-107093004D01*
X105427583Y-107064724D01*
X105568342Y-107035574D01*
X105839343Y-106939607D01*
X106094812Y-106807750D01*
X106098313Y-106805289D01*
X106098317Y-106805287D01*
X106212417Y-106725096D01*
X106330023Y-106642441D01*
X106540622Y-106446740D01*
X106722713Y-106224268D01*
X106872927Y-105979142D01*
X106988483Y-105715898D01*
X107067244Y-105439406D01*
X107107751Y-105154784D01*
X107107845Y-105136951D01*
X107107867Y-105132703D01*
X192890743Y-105132703D01*
X192928268Y-105417734D01*
X193004129Y-105695036D01*
X193116923Y-105959476D01*
X193264561Y-106206161D01*
X193444313Y-106430528D01*
X193652851Y-106628423D01*
X193886317Y-106796186D01*
X193890112Y-106798195D01*
X193890113Y-106798196D01*
X193911869Y-106809715D01*
X194140392Y-106930712D01*
X194410373Y-107029511D01*
X194691264Y-107090755D01*
X194719841Y-107093004D01*
X194914282Y-107108307D01*
X194914291Y-107108307D01*
X194916739Y-107108500D01*
X195072271Y-107108500D01*
X195074407Y-107108354D01*
X195074418Y-107108354D01*
X195282548Y-107094165D01*
X195282554Y-107094164D01*
X195286825Y-107093873D01*
X195291020Y-107093004D01*
X195291022Y-107093004D01*
X195427583Y-107064724D01*
X195568342Y-107035574D01*
X195839343Y-106939607D01*
X196094812Y-106807750D01*
X196098313Y-106805289D01*
X196098317Y-106805287D01*
X196212418Y-106725095D01*
X196330023Y-106642441D01*
X196540622Y-106446740D01*
X196722713Y-106224268D01*
X196872927Y-105979142D01*
X196988483Y-105715898D01*
X197067244Y-105439406D01*
X197107751Y-105154784D01*
X197107845Y-105136951D01*
X197109235Y-104871583D01*
X197109235Y-104871576D01*
X197109257Y-104867297D01*
X197071732Y-104582266D01*
X196995871Y-104304964D01*
X196883077Y-104040524D01*
X196735439Y-103793839D01*
X196555687Y-103569472D01*
X196347149Y-103371577D01*
X196113683Y-103203814D01*
X196091843Y-103192250D01*
X196068654Y-103179972D01*
X195859608Y-103069288D01*
X195589627Y-102970489D01*
X195308736Y-102909245D01*
X195277685Y-102906801D01*
X195085718Y-102891693D01*
X195085709Y-102891693D01*
X195083261Y-102891500D01*
X194927729Y-102891500D01*
X194925593Y-102891646D01*
X194925582Y-102891646D01*
X194717452Y-102905835D01*
X194717446Y-102905836D01*
X194713175Y-102906127D01*
X194708980Y-102906996D01*
X194708978Y-102906996D01*
X194572417Y-102935276D01*
X194431658Y-102964426D01*
X194160657Y-103060393D01*
X193905188Y-103192250D01*
X193901687Y-103194711D01*
X193901683Y-103194713D01*
X193891594Y-103201804D01*
X193669977Y-103357559D01*
X193459378Y-103553260D01*
X193277287Y-103775732D01*
X193127073Y-104020858D01*
X193011517Y-104284102D01*
X192932756Y-104560594D01*
X192892249Y-104845216D01*
X192892227Y-104849505D01*
X192892226Y-104849512D01*
X192890765Y-105128417D01*
X192890743Y-105132703D01*
X107107867Y-105132703D01*
X107109235Y-104871583D01*
X107109235Y-104871576D01*
X107109257Y-104867297D01*
X107071732Y-104582266D01*
X106995871Y-104304964D01*
X106883077Y-104040524D01*
X106735439Y-103793839D01*
X106555687Y-103569472D01*
X106347149Y-103371577D01*
X106113683Y-103203814D01*
X106091843Y-103192250D01*
X106068654Y-103179972D01*
X105859608Y-103069288D01*
X105589627Y-102970489D01*
X105308736Y-102909245D01*
X105277685Y-102906801D01*
X105085718Y-102891693D01*
X105085709Y-102891693D01*
X105083261Y-102891500D01*
X104927729Y-102891500D01*
X104925593Y-102891646D01*
X104925582Y-102891646D01*
X104717452Y-102905835D01*
X104717446Y-102905836D01*
X104713175Y-102906127D01*
X104708980Y-102906996D01*
X104708978Y-102906996D01*
X104572417Y-102935276D01*
X104431658Y-102964426D01*
X104160657Y-103060393D01*
X103905188Y-103192250D01*
X103901687Y-103194711D01*
X103901683Y-103194713D01*
X103891594Y-103201804D01*
X103669977Y-103357559D01*
X103459378Y-103553260D01*
X103277287Y-103775732D01*
X103127073Y-104020858D01*
X103011517Y-104284102D01*
X102932756Y-104560594D01*
X102892249Y-104845216D01*
X102892227Y-104849505D01*
X102892226Y-104849512D01*
X102890765Y-105128417D01*
X102890743Y-105132703D01*
X100508000Y-105132703D01*
X100508000Y-95132703D01*
X102890743Y-95132703D01*
X102928268Y-95417734D01*
X103004129Y-95695036D01*
X103116923Y-95959476D01*
X103264561Y-96206161D01*
X103444313Y-96430528D01*
X103652851Y-96628423D01*
X103886317Y-96796186D01*
X103890112Y-96798195D01*
X103890113Y-96798196D01*
X103911869Y-96809715D01*
X104140392Y-96930712D01*
X104410373Y-97029511D01*
X104691264Y-97090755D01*
X104719841Y-97093004D01*
X104914282Y-97108307D01*
X104914291Y-97108307D01*
X104916739Y-97108500D01*
X105072271Y-97108500D01*
X105074407Y-97108354D01*
X105074418Y-97108354D01*
X105282548Y-97094165D01*
X105282554Y-97094164D01*
X105286825Y-97093873D01*
X105291020Y-97093004D01*
X105291022Y-97093004D01*
X105427583Y-97064724D01*
X105568342Y-97035574D01*
X105839343Y-96939607D01*
X106094812Y-96807750D01*
X106098313Y-96805289D01*
X106098317Y-96805287D01*
X106212418Y-96725095D01*
X106330023Y-96642441D01*
X106540622Y-96446740D01*
X106722713Y-96224268D01*
X106872927Y-95979142D01*
X106988483Y-95715898D01*
X107067244Y-95439406D01*
X107107751Y-95154784D01*
X107107845Y-95136951D01*
X107107867Y-95132703D01*
X192890743Y-95132703D01*
X192928268Y-95417734D01*
X193004129Y-95695036D01*
X193116923Y-95959476D01*
X193264561Y-96206161D01*
X193444313Y-96430528D01*
X193652851Y-96628423D01*
X193886317Y-96796186D01*
X193890112Y-96798195D01*
X193890113Y-96798196D01*
X193911869Y-96809715D01*
X194140392Y-96930712D01*
X194410373Y-97029511D01*
X194691264Y-97090755D01*
X194719841Y-97093004D01*
X194914282Y-97108307D01*
X194914291Y-97108307D01*
X194916739Y-97108500D01*
X195072271Y-97108500D01*
X195074407Y-97108354D01*
X195074418Y-97108354D01*
X195282548Y-97094165D01*
X195282554Y-97094164D01*
X195286825Y-97093873D01*
X195291020Y-97093004D01*
X195291022Y-97093004D01*
X195427583Y-97064724D01*
X195568342Y-97035574D01*
X195839343Y-96939607D01*
X196094812Y-96807750D01*
X196098313Y-96805289D01*
X196098317Y-96805287D01*
X196212418Y-96725095D01*
X196330023Y-96642441D01*
X196540622Y-96446740D01*
X196722713Y-96224268D01*
X196872927Y-95979142D01*
X196988483Y-95715898D01*
X197067244Y-95439406D01*
X197107751Y-95154784D01*
X197107845Y-95136951D01*
X197109235Y-94871583D01*
X197109235Y-94871576D01*
X197109257Y-94867297D01*
X197071732Y-94582266D01*
X196995871Y-94304964D01*
X196883077Y-94040524D01*
X196735439Y-93793839D01*
X196555687Y-93569472D01*
X196347149Y-93371577D01*
X196113683Y-93203814D01*
X196091843Y-93192250D01*
X196068654Y-93179972D01*
X195859608Y-93069288D01*
X195589627Y-92970489D01*
X195308736Y-92909245D01*
X195277685Y-92906801D01*
X195085718Y-92891693D01*
X195085709Y-92891693D01*
X195083261Y-92891500D01*
X194927729Y-92891500D01*
X194925593Y-92891646D01*
X194925582Y-92891646D01*
X194717452Y-92905835D01*
X194717446Y-92905836D01*
X194713175Y-92906127D01*
X194708980Y-92906996D01*
X194708978Y-92906996D01*
X194572417Y-92935276D01*
X194431658Y-92964426D01*
X194160657Y-93060393D01*
X193905188Y-93192250D01*
X193901687Y-93194711D01*
X193901683Y-93194713D01*
X193891594Y-93201804D01*
X193669977Y-93357559D01*
X193459378Y-93553260D01*
X193277287Y-93775732D01*
X193127073Y-94020858D01*
X193011517Y-94284102D01*
X192932756Y-94560594D01*
X192892249Y-94845216D01*
X192892227Y-94849505D01*
X192892226Y-94849512D01*
X192890765Y-95128417D01*
X192890743Y-95132703D01*
X107107867Y-95132703D01*
X107109235Y-94871583D01*
X107109235Y-94871576D01*
X107109257Y-94867297D01*
X107071732Y-94582266D01*
X106995871Y-94304964D01*
X106883077Y-94040524D01*
X106735439Y-93793839D01*
X106555687Y-93569472D01*
X106347149Y-93371577D01*
X106113683Y-93203814D01*
X106091843Y-93192250D01*
X106068654Y-93179972D01*
X105859608Y-93069288D01*
X105589627Y-92970489D01*
X105308736Y-92909245D01*
X105277685Y-92906801D01*
X105085718Y-92891693D01*
X105085709Y-92891693D01*
X105083261Y-92891500D01*
X104927729Y-92891500D01*
X104925593Y-92891646D01*
X104925582Y-92891646D01*
X104717452Y-92905835D01*
X104717446Y-92905836D01*
X104713175Y-92906127D01*
X104708980Y-92906996D01*
X104708978Y-92906996D01*
X104572417Y-92935276D01*
X104431658Y-92964426D01*
X104160657Y-93060393D01*
X103905188Y-93192250D01*
X103901687Y-93194711D01*
X103901683Y-93194713D01*
X103891594Y-93201804D01*
X103669977Y-93357559D01*
X103459378Y-93553260D01*
X103277287Y-93775732D01*
X103127073Y-94020858D01*
X103011517Y-94284102D01*
X102932756Y-94560594D01*
X102892249Y-94845216D01*
X102892227Y-94849505D01*
X102892226Y-94849512D01*
X102890765Y-95128417D01*
X102890743Y-95132703D01*
X100508000Y-95132703D01*
X100508000Y-55132703D01*
X102890743Y-55132703D01*
X102928268Y-55417734D01*
X103004129Y-55695036D01*
X103116923Y-55959476D01*
X103264561Y-56206161D01*
X103444313Y-56430528D01*
X103652851Y-56628423D01*
X103886317Y-56796186D01*
X103890112Y-56798195D01*
X103890113Y-56798196D01*
X103911869Y-56809715D01*
X104140392Y-56930712D01*
X104410373Y-57029511D01*
X104691264Y-57090755D01*
X104719841Y-57093004D01*
X104914282Y-57108307D01*
X104914291Y-57108307D01*
X104916739Y-57108500D01*
X105072271Y-57108500D01*
X105074407Y-57108354D01*
X105074418Y-57108354D01*
X105282548Y-57094165D01*
X105282554Y-57094164D01*
X105286825Y-57093873D01*
X105291020Y-57093004D01*
X105291022Y-57093004D01*
X105427583Y-57064724D01*
X105568342Y-57035574D01*
X105839343Y-56939607D01*
X106094812Y-56807750D01*
X106098313Y-56805289D01*
X106098317Y-56805287D01*
X106212417Y-56725096D01*
X106330023Y-56642441D01*
X106540622Y-56446740D01*
X106722713Y-56224268D01*
X106872927Y-55979142D01*
X106988483Y-55715898D01*
X107067244Y-55439406D01*
X107107751Y-55154784D01*
X107107845Y-55136951D01*
X107107867Y-55132703D01*
X192890743Y-55132703D01*
X192928268Y-55417734D01*
X193004129Y-55695036D01*
X193116923Y-55959476D01*
X193264561Y-56206161D01*
X193444313Y-56430528D01*
X193652851Y-56628423D01*
X193886317Y-56796186D01*
X193890112Y-56798195D01*
X193890113Y-56798196D01*
X193911869Y-56809715D01*
X194140392Y-56930712D01*
X194410373Y-57029511D01*
X194691264Y-57090755D01*
X194719841Y-57093004D01*
X194914282Y-57108307D01*
X194914291Y-57108307D01*
X194916739Y-57108500D01*
X195072271Y-57108500D01*
X195074407Y-57108354D01*
X195074418Y-57108354D01*
X195282548Y-57094165D01*
X195282554Y-57094164D01*
X195286825Y-57093873D01*
X195291020Y-57093004D01*
X195291022Y-57093004D01*
X195427583Y-57064724D01*
X195568342Y-57035574D01*
X195839343Y-56939607D01*
X196094812Y-56807750D01*
X196098313Y-56805289D01*
X196098317Y-56805287D01*
X196212417Y-56725096D01*
X196330023Y-56642441D01*
X196540622Y-56446740D01*
X196722713Y-56224268D01*
X196872927Y-55979142D01*
X196988483Y-55715898D01*
X197067244Y-55439406D01*
X197107751Y-55154784D01*
X197107845Y-55136951D01*
X197109235Y-54871583D01*
X197109235Y-54871576D01*
X197109257Y-54867297D01*
X197071732Y-54582266D01*
X196995871Y-54304964D01*
X196883077Y-54040524D01*
X196735439Y-53793839D01*
X196555687Y-53569472D01*
X196347149Y-53371577D01*
X196113683Y-53203814D01*
X196091843Y-53192250D01*
X196068654Y-53179972D01*
X195859608Y-53069288D01*
X195589627Y-52970489D01*
X195308736Y-52909245D01*
X195277685Y-52906801D01*
X195085718Y-52891693D01*
X195085709Y-52891693D01*
X195083261Y-52891500D01*
X194927729Y-52891500D01*
X194925593Y-52891646D01*
X194925582Y-52891646D01*
X194717452Y-52905835D01*
X194717446Y-52905836D01*
X194713175Y-52906127D01*
X194708980Y-52906996D01*
X194708978Y-52906996D01*
X194572416Y-52935277D01*
X194431658Y-52964426D01*
X194160657Y-53060393D01*
X193905188Y-53192250D01*
X193901687Y-53194711D01*
X193901683Y-53194713D01*
X193891594Y-53201804D01*
X193669977Y-53357559D01*
X193459378Y-53553260D01*
X193277287Y-53775732D01*
X193127073Y-54020858D01*
X193011517Y-54284102D01*
X192932756Y-54560594D01*
X192892249Y-54845216D01*
X192892227Y-54849505D01*
X192892226Y-54849512D01*
X192890765Y-55128417D01*
X192890743Y-55132703D01*
X107107867Y-55132703D01*
X107109235Y-54871583D01*
X107109235Y-54871576D01*
X107109257Y-54867297D01*
X107071732Y-54582266D01*
X106995871Y-54304964D01*
X106883077Y-54040524D01*
X106735439Y-53793839D01*
X106555687Y-53569472D01*
X106347149Y-53371577D01*
X106113683Y-53203814D01*
X106091843Y-53192250D01*
X106068654Y-53179972D01*
X105859608Y-53069288D01*
X105589627Y-52970489D01*
X105308736Y-52909245D01*
X105277685Y-52906801D01*
X105085718Y-52891693D01*
X105085709Y-52891693D01*
X105083261Y-52891500D01*
X104927729Y-52891500D01*
X104925593Y-52891646D01*
X104925582Y-52891646D01*
X104717452Y-52905835D01*
X104717446Y-52905836D01*
X104713175Y-52906127D01*
X104708980Y-52906996D01*
X104708978Y-52906996D01*
X104572416Y-52935277D01*
X104431658Y-52964426D01*
X104160657Y-53060393D01*
X103905188Y-53192250D01*
X103901687Y-53194711D01*
X103901683Y-53194713D01*
X103891594Y-53201804D01*
X103669977Y-53357559D01*
X103459378Y-53553260D01*
X103277287Y-53775732D01*
X103127073Y-54020858D01*
X103011517Y-54284102D01*
X102932756Y-54560594D01*
X102892249Y-54845216D01*
X102892227Y-54849505D01*
X102892226Y-54849512D01*
X102890765Y-55128417D01*
X102890743Y-55132703D01*
X100508000Y-55132703D01*
X100508000Y-50634000D01*
X100528002Y-50565879D01*
X100581658Y-50519386D01*
X100634000Y-50508000D01*
X199366000Y-50508000D01*
X199434121Y-50528002D01*
G37*
G04 #@! TD.AperFunction*
M02*
